#!OML:ASF F:\VICON\USERDATA\INSTALL\rory3\rory3.ASF
:FULLY-SPECIFIED
:DEGREES
226
root -1.67277 18.0361 10.6739 -3.60843 69.975 -3.98591
lowerback 9.76076 2.51266 1.22787
upperback 0.589447 3.47627 -0.381644
thorax -4.75687 1.69536 -1.5607
lowerneck -20.7892 -5.7076 -11.9853
upperneck 29.6697 -6.31733 8.25135
head 14.3637 -2.82525 4.27524
rclavicle -3.2228e-014 3.77691e-015
rhumerus -28.3788 -16.4211 -77.7355
rradius 34.7987
rwrist 4.35908
rhand -16.0225 8.98284
rfingers 7.12502
rthumb 10.1785 -20.7509
lclavicle -3.2228e-014 3.77691e-015
lhumerus -38.4715 17.4753 76.9115
lradius 25.1743
lwrist -10.9548
lhand -19.545 30.4344
lfingers 7.12502
lthumb 6.77904 60.3059
rfemur 8.8387 -3.18052 20.415
rtibia 33.6935
rfoot 3.06119 -6.8132
rtoes -3.92895
lfemur -14.513 4.44626 -25.0233
ltibia 11.9889
lfoot 3.59786 3.61188
ltoes 10.4936
227
root -1.52129 18.053 10.7004 -2.84926 70.2292 -3.02464
lowerback 9.77526 2.49091 0.920383
upperback 0.63765 3.4129 -0.4086
thorax -4.73288 1.67115 -1.40763
lowerneck -20.8226 -5.66411 -11.9831
upperneck 29.762 -6.20489 8.1186
head 14.3915 -2.79404 4.24436
rclavicle -7.29788e-014 0
rhumerus -28.6626 -16.7616 -77.7121
rradius 34.8305
rwrist 4.17619
rhand -16.1825 8.9635
rfingers 7.12502
rthumb 10.0241 -20.7778
lclavicle -7.29788e-014 0
lhumerus -38.32 17.4704 77.0648
lradius 25.2547
lwrist -10.8592
lhand -20.5837 30.987
lfingers 7.12502
lthumb 5.77625 60.8883
rfemur 7.81607 -3.40182 19.7784
rtibia 36.0217
rfoot 5.78231 -6.21
rtoes -2.57244
lfemur -13.509 4.7734 -25.5272
ltibia 11.3446
lfoot 3.49136 3.1669
ltoes 11.7366
228
root -1.37173 18.0686 10.7252 -1.84659 70.4821 -1.92713
lowerback 9.71053 2.48807 0.623364
upperback 0.652401 3.37231 -0.494248
thorax -4.6943 1.65715 -1.32132
lowerneck -20.7912 -5.64381 -12.0219
upperneck 29.739 -6.16563 8.12885
head 14.3713 -2.78028 4.26231
rclavicle 4.74598e-015 -1.19271e-015
rhumerus -28.9141 -16.9744 -77.7225
rradius 34.7853
rwrist 4.07043
rhand -16.1553 8.91789
rfingers 7.12502
rthumb 10.0503 -20.8221
lclavicle 4.74598e-015 -1.19271e-015
lhumerus -38.1071 17.1909 77.3547
lradius 25.3705
lwrist -10.716
lhand -21.202 31.1288
lfingers 7.12502
lthumb 5.17931 61.0455
rfemur 6.63076 -3.56881 19.1214
rtibia 38.3457
rfoot 8.42348 -5.52987
rtoes -1.58837
lfemur -12.6031 5.17062 -26.1009
ltibia 10.6404
lfoot 3.55882 2.475
ltoes 12.433
229
root -1.22639 18.0817 10.7495 -0.495286 70.6177 -0.433642
lowerback 9.6763 2.55044 0.167348
upperback 0.685966 3.40097 -0.608073
thorax -4.65896 1.68043 -1.18564
lowerneck -20.7905 -5.6972 -12.1575
upperneck 29.7261 -6.23977 8.26646
head 14.3874 -2.80857 4.329
rclavicle 1.36664e-016 3.57812e-015
rhumerus -29.0647 -17.0324 -77.7616
rradius 34.5975
rwrist 3.86162
rhand -16.0035 9.01215
rfingers 7.12502
rthumb 10.1968 -20.7207
lclavicle 1.36664e-016 3.57812e-015
lhumerus -37.8083 16.5093 77.8924
lradius 25.5769
lwrist -10.1403
lhand -20.9787 31.0577
lfingers 7.12502
lthumb 5.39492 60.9691
rfemur 5.41689 -3.65444 18.3225
rtibia 40.6364
rfoot 10.8164 -5.0174
rtoes 0.127336
lfemur -11.7453 5.69564 -26.7904
ltibia 10.0526
lfoot 3.52981 1.78297
ltoes 12.7936
230
root -1.08181 18.0864 10.7744 0.696061 70.7881 0.964152
lowerback 9.67422 2.57592 -0.264574
upperback 0.760713 3.38505 -0.713632
thorax -4.59863 1.68161 -1.04924
lowerneck -20.8461 -5.73571 -12.0806
upperneck 29.7519 -6.29938 8.20785
head 14.4133 -2.83215 4.28017
rclavicle -5.87657e-015 -3.97569e-016
rhumerus -29.2026 -17.0375 -77.8832
rradius 34.4506
rwrist 3.67807
rhand -15.9333 9.03196
rfingers 7.12502
rthumb 10.2645 -20.6976
lclavicle -5.87657e-015 -3.97569e-016
lhumerus -37.5541 15.8655 78.4514
lradius 25.8779
lwrist -10.1622
lhand -19.5461 30.4052
lfingers 7.12502
lthumb 6.77802 60.2767
rfemur 4.31481 -3.69836 17.6045
rtibia 42.9048
rfoot 12.8276 -4.82019
rtoes 2.91841
lfemur -10.7449 5.86154 -27.3668
ltibia 9.41281
lfoot 3.40948 1.40949
ltoes 13.3903
231
root -0.939725 18.0853 10.8002 1.94568 71.0262 2.42205
lowerback 9.69895 2.54627 -0.757179
upperback 0.815055 3.29153 -0.767071
thorax -4.58154 1.64529 -0.81654
lowerneck -20.8483 -5.6975 -12.0131
upperneck 29.7612 -6.23304 8.10758
head 14.4017 -2.80926 4.2395
rclavicle 3.73964e-014 -1.19271e-015
rhumerus -29.375 -16.9744 -77.9327
rradius 34.3906
rwrist 3.73708
rhand -15.7657 8.91838
rfingers 7.12502
rthumb 10.4262 -20.8031
lclavicle 3.73964e-014 -1.19271e-015
lhumerus -37.4554 15.458 78.9591
lradius 26.2897
lwrist -10.4787
lhand -18.044 29.2534
lfingers 7.12502
lthumb 8.22788 59.0732
rfemur 3.25387 -3.83485 16.9007
rtibia 45.1399
rfoot 14.5111 -4.19133
rtoes 4.60796
lfemur -9.68878 5.95867 -27.926
ltibia 8.70079
lfoot 3.25689 1.07637
ltoes 14.9785
232
root -0.802437 18.087 10.8266 3.6287 71.2251 4.33746
lowerback 9.81698 2.54232 -1.38762
upperback 0.833219 3.21296 -0.866141
thorax -4.65791 1.61833 -0.561952
lowerneck -20.7333 -5.63374 -12.0002
upperneck 29.6821 -6.14551 8.08352
head 14.3281 -2.77462 4.24166
rclavicle 5.03795e-014 1.98785e-015
rhumerus -29.5742 -16.9831 -77.9583
rradius 34.3214
rwrist 3.91418
rhand -15.6546 8.86078
rfingers 7.12502
rthumb 10.5333 -20.8553
lclavicle 5.03795e-014 1.98785e-015
lhumerus -37.3328 14.7922 79.4691
lradius 26.7226
lwrist -10.3925
lhand -17.7844 28.8524
lfingers 7.12502
lthumb 8.47837 58.6622
rfemur 2.11991 -3.98219 16.0321
rtibia 47.3703
rfoot 15.9017 -3.08636
rtoes 4.48103
lfemur -8.69504 6.07736 -28.6258
ltibia 8.03631
lfoot 3.13268 0.780075
ltoes 16.0495
